<mxfile host="app.diagrams.net" modified="2022-01-05T10:52:08.994Z" agent="5.0 (Windows)" etag="BUi_KRUe8AoP1NuMYYsp" version="16.1.0" type="github">
  <diagram id="C5RBs43oDa-KdzZeNtuy" name="Page-1">
    <mxGraphModel dx="1422" dy="909" grid="1" gridSize="10" guides="1" tooltips="1" connect="1" arrows="1" fold="1" page="1" pageScale="1" pageWidth="827" pageHeight="1169" math="0" shadow="0">
      <root>
        <mxCell id="WIyWlLk6GJQsqaUBKTNV-0" />
        <mxCell id="WIyWlLk6GJQsqaUBKTNV-1" parent="WIyWlLk6GJQsqaUBKTNV-0" />
        <mxCell id="LGMG90__RkMLB7gK0Yg4-17" value="" style="whiteSpace=wrap;html=1;aspect=fixed;" vertex="1" parent="WIyWlLk6GJQsqaUBKTNV-1">
          <mxGeometry x="374" y="40" width="80" height="80" as="geometry" />
        </mxCell>
        <mxCell id="LGMG90__RkMLB7gK0Yg4-18" value="Gebäude" style="text;html=1;strokeColor=none;fillColor=none;align=center;verticalAlign=middle;whiteSpace=wrap;rounded=0;" vertex="1" parent="WIyWlLk6GJQsqaUBKTNV-1">
          <mxGeometry x="384" y="65" width="60" height="30" as="geometry" />
        </mxCell>
        <mxCell id="LGMG90__RkMLB7gK0Yg4-20" value="Gebäudenummer" style="ellipse;whiteSpace=wrap;html=1;" vertex="1" parent="WIyWlLk6GJQsqaUBKTNV-1">
          <mxGeometry x="550" y="10" width="120" height="80" as="geometry" />
        </mxCell>
        <mxCell id="LGMG90__RkMLB7gK0Yg4-22" value="" style="endArrow=none;html=1;rounded=0;entryX=0;entryY=0.5;entryDx=0;entryDy=0;" edge="1" parent="WIyWlLk6GJQsqaUBKTNV-1" target="LGMG90__RkMLB7gK0Yg4-20">
          <mxGeometry width="50" height="50" relative="1" as="geometry">
            <mxPoint x="454" y="75" as="sourcePoint" />
            <mxPoint x="504" y="25" as="targetPoint" />
          </mxGeometry>
        </mxCell>
        <mxCell id="LGMG90__RkMLB7gK0Yg4-24" value="" style="endArrow=none;html=1;rounded=0;exitX=0;exitY=0.5;exitDx=0;exitDy=0;entryX=1;entryY=0.5;entryDx=0;entryDy=0;" edge="1" parent="WIyWlLk6GJQsqaUBKTNV-1" source="LGMG90__RkMLB7gK0Yg4-17">
          <mxGeometry width="50" height="50" relative="1" as="geometry">
            <mxPoint x="463.9999999999998" y="85" as="sourcePoint" />
            <mxPoint x="290.0000000000001" y="50" as="targetPoint" />
          </mxGeometry>
        </mxCell>
        <mxCell id="LGMG90__RkMLB7gK0Yg4-25" value="1" style="text;html=1;strokeColor=none;fillColor=none;align=center;verticalAlign=middle;whiteSpace=wrap;rounded=0;" vertex="1" parent="WIyWlLk6GJQsqaUBKTNV-1">
          <mxGeometry x="510" y="30" width="60" height="30" as="geometry" />
        </mxCell>
        <mxCell id="LGMG90__RkMLB7gK0Yg4-26" value="1" style="text;html=1;strokeColor=none;fillColor=none;align=center;verticalAlign=middle;whiteSpace=wrap;rounded=0;" vertex="1" parent="WIyWlLk6GJQsqaUBKTNV-1">
          <mxGeometry x="270" y="30" width="60" height="30" as="geometry" />
        </mxCell>
        <mxCell id="LGMG90__RkMLB7gK0Yg4-27" value="Gebäudeadresse" style="swimlane;fontStyle=0;childLayout=stackLayout;horizontal=1;startSize=26;fillColor=none;horizontalStack=0;resizeParent=1;resizeParentMax=0;resizeLast=0;collapsible=1;marginBottom=0;" vertex="1" parent="WIyWlLk6GJQsqaUBKTNV-1">
          <mxGeometry x="150" y="16" width="140" height="104" as="geometry" />
        </mxCell>
        <mxCell id="LGMG90__RkMLB7gK0Yg4-28" value="+ Straße, Hausnummer" style="text;strokeColor=none;fillColor=none;align=left;verticalAlign=top;spacingLeft=4;spacingRight=4;overflow=hidden;rotatable=0;points=[[0,0.5],[1,0.5]];portConstraint=eastwest;" vertex="1" parent="LGMG90__RkMLB7gK0Yg4-27">
          <mxGeometry y="26" width="140" height="26" as="geometry" />
        </mxCell>
        <mxCell id="LGMG90__RkMLB7gK0Yg4-29" value="+ PLZ, Stadt" style="text;strokeColor=none;fillColor=none;align=left;verticalAlign=top;spacingLeft=4;spacingRight=4;overflow=hidden;rotatable=0;points=[[0,0.5],[1,0.5]];portConstraint=eastwest;" vertex="1" parent="LGMG90__RkMLB7gK0Yg4-27">
          <mxGeometry y="52" width="140" height="26" as="geometry" />
        </mxCell>
        <mxCell id="LGMG90__RkMLB7gK0Yg4-30" value="+ Land" style="text;strokeColor=none;fillColor=none;align=left;verticalAlign=top;spacingLeft=4;spacingRight=4;overflow=hidden;rotatable=0;points=[[0,0.5],[1,0.5]];portConstraint=eastwest;" vertex="1" parent="LGMG90__RkMLB7gK0Yg4-27">
          <mxGeometry y="78" width="140" height="26" as="geometry" />
        </mxCell>
        <mxCell id="LGMG90__RkMLB7gK0Yg4-31" value="Wohungen" style="swimlane;fontStyle=0;childLayout=stackLayout;horizontal=1;startSize=26;fillColor=none;horizontalStack=0;resizeParent=1;resizeParentMax=0;resizeLast=0;collapsible=1;marginBottom=0;" vertex="1" parent="WIyWlLk6GJQsqaUBKTNV-1">
          <mxGeometry x="343" y="170" width="140" height="52" as="geometry" />
        </mxCell>
        <mxCell id="LGMG90__RkMLB7gK0Yg4-33" value="+Top No." style="text;strokeColor=none;fillColor=none;align=left;verticalAlign=top;spacingLeft=4;spacingRight=4;overflow=hidden;rotatable=0;points=[[0,0.5],[1,0.5]];portConstraint=eastwest;" vertex="1" parent="LGMG90__RkMLB7gK0Yg4-31">
          <mxGeometry y="26" width="140" height="26" as="geometry" />
        </mxCell>
        <mxCell id="LGMG90__RkMLB7gK0Yg4-36" value="" style="endArrow=none;html=1;rounded=0;entryX=0.54;entryY=0.005;entryDx=0;entryDy=0;exitX=0.619;exitY=1.001;exitDx=0;exitDy=0;entryPerimeter=0;exitPerimeter=0;" edge="1" parent="WIyWlLk6GJQsqaUBKTNV-1" source="LGMG90__RkMLB7gK0Yg4-17" target="LGMG90__RkMLB7gK0Yg4-31">
          <mxGeometry width="50" height="50" relative="1" as="geometry">
            <mxPoint x="380" y="110" as="sourcePoint" />
            <mxPoint x="290" y="181" as="targetPoint" />
          </mxGeometry>
        </mxCell>
        <mxCell id="LGMG90__RkMLB7gK0Yg4-37" value="n" style="text;html=1;strokeColor=none;fillColor=none;align=center;verticalAlign=middle;whiteSpace=wrap;rounded=0;" vertex="1" parent="WIyWlLk6GJQsqaUBKTNV-1">
          <mxGeometry x="405" y="150" width="16" height="10" as="geometry" />
        </mxCell>
        <mxCell id="LGMG90__RkMLB7gK0Yg4-38" value="Bewohner:in" style="swimlane;fontStyle=0;childLayout=stackLayout;horizontal=1;startSize=26;fillColor=none;horizontalStack=0;resizeParent=1;resizeParentMax=0;resizeLast=0;collapsible=1;marginBottom=0;" vertex="1" parent="WIyWlLk6GJQsqaUBKTNV-1">
          <mxGeometry x="150" y="290" width="140" height="104" as="geometry" />
        </mxCell>
        <mxCell id="LGMG90__RkMLB7gK0Yg4-39" value="+ Vor- Zuname" style="text;strokeColor=none;fillColor=none;align=left;verticalAlign=top;spacingLeft=4;spacingRight=4;overflow=hidden;rotatable=0;points=[[0,0.5],[1,0.5]];portConstraint=eastwest;" vertex="1" parent="LGMG90__RkMLB7gK0Yg4-38">
          <mxGeometry y="26" width="140" height="26" as="geometry" />
        </mxCell>
        <mxCell id="LGMG90__RkMLB7gK0Yg4-40" value="+ Email" style="text;strokeColor=none;fillColor=none;align=left;verticalAlign=top;spacingLeft=4;spacingRight=4;overflow=hidden;rotatable=0;points=[[0,0.5],[1,0.5]];portConstraint=eastwest;" vertex="1" parent="LGMG90__RkMLB7gK0Yg4-38">
          <mxGeometry y="52" width="140" height="26" as="geometry" />
        </mxCell>
        <mxCell id="LGMG90__RkMLB7gK0Yg4-41" value="+ Konto" style="text;strokeColor=none;fillColor=none;align=left;verticalAlign=top;spacingLeft=4;spacingRight=4;overflow=hidden;rotatable=0;points=[[0,0.5],[1,0.5]];portConstraint=eastwest;" vertex="1" parent="LGMG90__RkMLB7gK0Yg4-38">
          <mxGeometry y="78" width="140" height="26" as="geometry" />
        </mxCell>
        <mxCell id="LGMG90__RkMLB7gK0Yg4-42" value="" style="endArrow=none;html=1;rounded=0;entryX=1;entryY=0.5;entryDx=0;entryDy=0;exitX=0.282;exitY=1.034;exitDx=0;exitDy=0;exitPerimeter=0;" edge="1" parent="WIyWlLk6GJQsqaUBKTNV-1" source="LGMG90__RkMLB7gK0Yg4-33">
          <mxGeometry width="50" height="50" relative="1" as="geometry">
            <mxPoint x="380" y="220" as="sourcePoint" />
            <mxPoint x="205.9999999999999" y="290" as="targetPoint" />
          </mxGeometry>
        </mxCell>
        <mxCell id="LGMG90__RkMLB7gK0Yg4-43" value="n" style="text;html=1;strokeColor=none;fillColor=none;align=center;verticalAlign=middle;whiteSpace=wrap;rounded=0;" vertex="1" parent="WIyWlLk6GJQsqaUBKTNV-1">
          <mxGeometry x="190" y="260" width="60" height="30" as="geometry" />
        </mxCell>
        <mxCell id="LGMG90__RkMLB7gK0Yg4-49" value="Stromzähler" style="swimlane;fontStyle=1;align=center;verticalAlign=top;childLayout=stackLayout;horizontal=1;startSize=26;horizontalStack=0;resizeParent=1;resizeParentMax=0;resizeLast=0;collapsible=1;marginBottom=0;" vertex="1" parent="WIyWlLk6GJQsqaUBKTNV-1">
          <mxGeometry x="330" y="330" width="160" height="86" as="geometry" />
        </mxCell>
        <mxCell id="LGMG90__RkMLB7gK0Yg4-50" value="+ Display" style="text;strokeColor=none;fillColor=none;align=left;verticalAlign=top;spacingLeft=4;spacingRight=4;overflow=hidden;rotatable=0;points=[[0,0.5],[1,0.5]];portConstraint=eastwest;" vertex="1" parent="LGMG90__RkMLB7gK0Yg4-49">
          <mxGeometry y="26" width="160" height="26" as="geometry" />
        </mxCell>
        <mxCell id="LGMG90__RkMLB7gK0Yg4-51" value="" style="line;strokeWidth=1;fillColor=none;align=left;verticalAlign=middle;spacingTop=-1;spacingLeft=3;spacingRight=3;rotatable=0;labelPosition=right;points=[];portConstraint=eastwest;" vertex="1" parent="LGMG90__RkMLB7gK0Yg4-49">
          <mxGeometry y="52" width="160" height="8" as="geometry" />
        </mxCell>
        <mxCell id="LGMG90__RkMLB7gK0Yg4-52" value="+ Stromverbrauch zählen" style="text;strokeColor=none;fillColor=none;align=left;verticalAlign=top;spacingLeft=4;spacingRight=4;overflow=hidden;rotatable=0;points=[[0,0.5],[1,0.5]];portConstraint=eastwest;" vertex="1" parent="LGMG90__RkMLB7gK0Yg4-49">
          <mxGeometry y="60" width="160" height="26" as="geometry" />
        </mxCell>
        <mxCell id="LGMG90__RkMLB7gK0Yg4-53" value="" style="endArrow=none;html=1;rounded=0;entryX=0.5;entryY=0;entryDx=0;entryDy=0;exitX=0.533;exitY=0.965;exitDx=0;exitDy=0;exitPerimeter=0;" edge="1" parent="WIyWlLk6GJQsqaUBKTNV-1" source="LGMG90__RkMLB7gK0Yg4-33" target="LGMG90__RkMLB7gK0Yg4-49">
          <mxGeometry width="50" height="50" relative="1" as="geometry">
            <mxPoint x="413" y="220" as="sourcePoint" />
            <mxPoint x="215.9999999999999" y="300" as="targetPoint" />
          </mxGeometry>
        </mxCell>
        <mxCell id="LGMG90__RkMLB7gK0Yg4-54" value="1" style="text;html=1;strokeColor=none;fillColor=none;align=center;verticalAlign=middle;whiteSpace=wrap;rounded=0;" vertex="1" parent="WIyWlLk6GJQsqaUBKTNV-1">
          <mxGeometry x="394" y="310" width="20" height="10" as="geometry" />
        </mxCell>
        <mxCell id="LGMG90__RkMLB7gK0Yg4-55" value="Wasseruhr" style="swimlane;fontStyle=1;align=center;verticalAlign=top;childLayout=stackLayout;horizontal=1;startSize=26;horizontalStack=0;resizeParent=1;resizeParentMax=0;resizeLast=0;collapsible=1;marginBottom=0;" vertex="1" parent="WIyWlLk6GJQsqaUBKTNV-1">
          <mxGeometry x="570" y="290" width="160" height="86" as="geometry" />
        </mxCell>
        <mxCell id="LGMG90__RkMLB7gK0Yg4-56" value="+ Uhr" style="text;strokeColor=none;fillColor=none;align=left;verticalAlign=top;spacingLeft=4;spacingRight=4;overflow=hidden;rotatable=0;points=[[0,0.5],[1,0.5]];portConstraint=eastwest;" vertex="1" parent="LGMG90__RkMLB7gK0Yg4-55">
          <mxGeometry y="26" width="160" height="26" as="geometry" />
        </mxCell>
        <mxCell id="LGMG90__RkMLB7gK0Yg4-57" value="" style="line;strokeWidth=1;fillColor=none;align=left;verticalAlign=middle;spacingTop=-1;spacingLeft=3;spacingRight=3;rotatable=0;labelPosition=right;points=[];portConstraint=eastwest;" vertex="1" parent="LGMG90__RkMLB7gK0Yg4-55">
          <mxGeometry y="52" width="160" height="8" as="geometry" />
        </mxCell>
        <mxCell id="LGMG90__RkMLB7gK0Yg4-58" value="+ Wasserverbrauch zählen" style="text;strokeColor=none;fillColor=none;align=left;verticalAlign=top;spacingLeft=4;spacingRight=4;overflow=hidden;rotatable=0;points=[[0,0.5],[1,0.5]];portConstraint=eastwest;" vertex="1" parent="LGMG90__RkMLB7gK0Yg4-55">
          <mxGeometry y="60" width="160" height="26" as="geometry" />
        </mxCell>
        <mxCell id="LGMG90__RkMLB7gK0Yg4-59" value="" style="endArrow=none;html=1;rounded=0;entryX=0.165;entryY=-0.015;entryDx=0;entryDy=0;exitX=0.799;exitY=0.976;exitDx=0;exitDy=0;exitPerimeter=0;entryPerimeter=0;" edge="1" parent="WIyWlLk6GJQsqaUBKTNV-1" source="LGMG90__RkMLB7gK0Yg4-33" target="LGMG90__RkMLB7gK0Yg4-55">
          <mxGeometry width="50" height="50" relative="1" as="geometry">
            <mxPoint x="427.6199999999999" y="231.09000000000003" as="sourcePoint" />
            <mxPoint x="420" y="340" as="targetPoint" />
          </mxGeometry>
        </mxCell>
        <mxCell id="LGMG90__RkMLB7gK0Yg4-60" value="2" style="text;html=1;strokeColor=none;fillColor=none;align=center;verticalAlign=middle;whiteSpace=wrap;rounded=0;" vertex="1" parent="WIyWlLk6GJQsqaUBKTNV-1">
          <mxGeometry x="590" y="270" width="20" height="10" as="geometry" />
        </mxCell>
        <mxCell id="LGMG90__RkMLB7gK0Yg4-61" value="" style="endArrow=none;html=1;rounded=0;exitX=0.523;exitY=0.009;exitDx=0;exitDy=0;exitPerimeter=0;entryX=0.385;entryY=1.034;entryDx=0;entryDy=0;entryPerimeter=0;" edge="1" parent="WIyWlLk6GJQsqaUBKTNV-1" source="LGMG90__RkMLB7gK0Yg4-38" target="LGMG90__RkMLB7gK0Yg4-33">
          <mxGeometry width="50" height="50" relative="1" as="geometry">
            <mxPoint x="330" y="290" as="sourcePoint" />
            <mxPoint x="380" y="240" as="targetPoint" />
          </mxGeometry>
        </mxCell>
        <mxCell id="LGMG90__RkMLB7gK0Yg4-62" value="" style="endArrow=none;html=1;rounded=0;entryX=0.54;entryY=0.005;entryDx=0;entryDy=0;exitX=0.619;exitY=1.001;exitDx=0;exitDy=0;entryPerimeter=0;exitPerimeter=0;" edge="1" parent="WIyWlLk6GJQsqaUBKTNV-1">
          <mxGeometry width="50" height="50" relative="1" as="geometry">
            <mxPoint x="433.52" y="119.82000000000004" as="sourcePoint" />
            <mxPoint x="428.5999999999999" y="170" as="targetPoint" />
          </mxGeometry>
        </mxCell>
      </root>
    </mxGraphModel>
  </diagram>
</mxfile>
